<?xml version="1.0" encoding="UTF-8" standalone="no"?>
<!DOCTYPE svg PUBLIC "-//W3C//DTD SVG 1.1//EN"
 "http://www.w3.org/Graphics/SVG/1.1/DTD/svg11.dtd">
<!-- Generated by graphviz version 2.38.0 (20140413.2041)
 -->
<!-- Title: %3 Pages: 1 -->
<svg width="473pt" height="628pt"
 viewBox="0.00 0.00 472.54 628.00" xmlns="http://www.w3.org/2000/svg" xmlns:xlink="http://www.w3.org/1999/xlink">
<g id="graph0" class="graph" transform="scale(1 1) rotate(0) translate(4 624)">
<title>%3</title>
<polygon fill="white" stroke="none" points="-4,4 -4,-624 468.54,-624 468.54,4 -4,4"/>
<!-- taste! trigger from github -->
<g id="node1" class="node"><title>taste! trigger from github</title>
<ellipse fill="none" stroke="red" cx="315.54" cy="-602" rx="100.983" ry="18"/>
<text text-anchor="middle" x="315.54" y="-598.3" font-family="Times,serif" font-size="14.00">taste! trigger from github</text>
</g>
<!-- jenkins_job -->
<g id="node2" class="node"><title>jenkins_job</title>
<ellipse fill="none" stroke="black" cx="255.54" cy="-529" rx="51.9908" ry="18"/>
<text text-anchor="middle" x="255.54" y="-525.3" font-family="Times,serif" font-size="14.00">jenkins_job</text>
</g>
<!-- taste! trigger from github&#45;&gt;jenkins_job -->
<g id="edge1" class="edge"><title>taste! trigger from github&#45;&gt;jenkins_job</title>
<path fill="none" stroke="black" d="M301.321,-584.174C293.849,-575.332 284.551,-564.329 276.29,-554.554"/>
<polygon fill="black" stroke="black" points="278.785,-552.084 269.657,-546.705 273.439,-556.602 278.785,-552.084"/>
</g>
<!-- payload_processor -->
<g id="node3" class="node"><title>payload_processor</title>
<ellipse fill="none" stroke="black" cx="227.54" cy="-456" rx="76.8869" ry="18"/>
<text text-anchor="middle" x="227.54" y="-452.3" font-family="Times,serif" font-size="14.00">payload_processor</text>
</g>
<!-- jenkins_job&#45;&gt;payload_processor -->
<g id="edge2" class="edge"><title>jenkins_job&#45;&gt;payload_processor</title>
<path fill="none" stroke="black" d="M248.762,-510.813C245.529,-502.615 241.589,-492.623 237.985,-483.485"/>
<polygon fill="black" stroke="black" points="241.181,-482.048 234.256,-474.029 234.669,-484.616 241.181,-482.048"/>
</g>
<!-- linter -->
<g id="node4" class="node"><title>linter</title>
<ellipse fill="none" stroke="black" cx="189.54" cy="-339" rx="29.4969" ry="18"/>
<text text-anchor="middle" x="189.54" y="-335.3" font-family="Times,serif" font-size="14.00">linter</text>
</g>
<!-- payload_processor&#45;&gt;linter -->
<g id="edge3" class="edge"><title>payload_processor&#45;&gt;linter</title>
<path fill="none" stroke="black" d="M221.933,-438.031C215.731,-419.261 205.655,-388.767 198.386,-366.77"/>
<polygon fill="black" stroke="black" points="201.631,-365.435 195.17,-357.038 194.985,-367.631 201.631,-365.435"/>
<text text-anchor="middle" x="262.54" y="-408.8" font-family="Times,serif" font-size="14.00">images_affected,</text>
<text text-anchor="middle" x="262.54" y="-393.8" font-family="Times,serif" font-size="14.00"> arch,</text>
<text text-anchor="middle" x="262.54" y="-378.8" font-family="Times,serif" font-size="14.00"> pr#</text>
</g>
<!-- image_builder -->
<g id="node5" class="node"><title>image_builder</title>
<ellipse fill="none" stroke="black" cx="131.54" cy="-222" rx="61.99" ry="18"/>
<text text-anchor="middle" x="131.54" y="-218.3" font-family="Times,serif" font-size="14.00">image_builder</text>
</g>
<!-- linter&#45;&gt;image_builder -->
<g id="edge4" class="edge"><title>linter&#45;&gt;image_builder</title>
<path fill="none" stroke="black" d="M181.23,-321.523C171.735,-302.696 156.065,-271.626 144.86,-249.41"/>
<polygon fill="black" stroke="black" points="147.842,-247.55 140.214,-240.197 141.592,-250.702 147.842,-247.55"/>
<text text-anchor="middle" x="218.54" y="-291.8" font-family="Times,serif" font-size="14.00">images_affected,</text>
<text text-anchor="middle" x="218.54" y="-276.8" font-family="Times,serif" font-size="14.00"> arch,</text>
<text text-anchor="middle" x="218.54" y="-261.8" font-family="Times,serif" font-size="14.00"> pr#</text>
</g>
<!-- openstack_taster -->
<g id="node6" class="node"><title>openstack_taster</title>
<ellipse fill="none" stroke="black" cx="289.54" cy="-105" rx="69.5877" ry="18"/>
<text text-anchor="middle" x="289.54" y="-101.3" font-family="Times,serif" font-size="14.00">openstack_taster</text>
</g>
<!-- image_builder&#45;&gt;openstack_taster -->
<g id="edge5" class="edge"><title>image_builder&#45;&gt;openstack_taster</title>
<path fill="none" stroke="black" d="M174.864,-208.955C188.429,-203.595 202.677,-196.138 213.54,-186 229.962,-170.676 221.565,-157.74 236.54,-141 241.085,-135.92 246.525,-131.253 252.162,-127.095"/>
<polygon fill="black" stroke="black" points="254.222,-129.927 260.483,-121.379 250.259,-124.157 254.222,-129.927"/>
<text text-anchor="middle" x="283.54" y="-174.8" font-family="Times,serif" font-size="14.00">images_affected,</text>
<text text-anchor="middle" x="283.54" y="-159.8" font-family="Times,serif" font-size="14.00"> arch,</text>
<text text-anchor="middle" x="283.54" y="-144.8" font-family="Times,serif" font-size="14.00"> pr#</text>
</g>
<!-- deploy -->
<g id="node7" class="node"><title>deploy</title>
<ellipse fill="none" stroke="black" cx="108.54" cy="-105" rx="34.394" ry="18"/>
<text text-anchor="middle" x="108.54" y="-101.3" font-family="Times,serif" font-size="14.00">deploy</text>
</g>
<!-- image_builder&#45;&gt;deploy -->
<g id="edge7" class="edge"><title>image_builder&#45;&gt;deploy</title>
<path fill="none" stroke="black" d="M116.487,-204.367C112.455,-198.902 108.637,-192.542 106.54,-186 101.097,-169.015 101.616,-148.948 103.486,-133.16"/>
<polygon fill="black" stroke="black" points="106.988,-133.4 104.94,-123.005 100.058,-132.408 106.988,-133.4"/>
</g>
<!-- openstack_taster&#45;&gt;taste! trigger from github -->
<g id="edge6" class="edge"><title>openstack_taster&#45;&gt;taste! trigger from github</title>
<path fill="none" stroke="black" d="M314.062,-122.195C320.337,-127.477 326.457,-133.848 330.54,-141 348.435,-172.348 344.54,-184.904 344.54,-221 344.54,-530 344.54,-530 344.54,-530 344.54,-545.75 338.349,-562.104 331.687,-575.141"/>
<polygon fill="black" stroke="black" points="328.573,-573.54 326.836,-583.991 334.712,-576.905 328.573,-573.54"/>
<text text-anchor="middle" x="404.54" y="-401.3" font-family="Times,serif" font-size="14.00">tasting result</text>
<text text-anchor="middle" x="404.54" y="-386.3" font-family="Times,serif" font-size="14.00"> also stored as artifact</text>
</g>
<!-- deploy&#45;&gt;image_builder -->
<g id="edge8" class="edge"><title>deploy&#45;&gt;image_builder</title>
<path fill="none" stroke="black" d="M111.991,-123.254C115.711,-141.851 121.684,-171.717 126.05,-193.548"/>
<polygon fill="black" stroke="black" points="122.654,-194.415 128.047,-203.534 129.518,-193.042 122.654,-194.415"/>
<text text-anchor="middle" x="168.04" y="-174.8" font-family="Times,serif" font-size="14.00">testing</text>
<text text-anchor="middle" x="168.04" y="-159.8" font-family="Times,serif" font-size="14.00"> success_results</text>
<text text-anchor="middle" x="168.04" y="-144.8" font-family="Times,serif" font-size="14.00"> failure_results</text>
</g>
<!-- deploy! trigger from github -->
<g id="node8" class="node"><title>deploy! trigger from github</title>
<ellipse fill="none" stroke="red" cx="108.54" cy="-18" rx="108.581" ry="18"/>
<text text-anchor="middle" x="108.54" y="-14.3" font-family="Times,serif" font-size="14.00">deploy! trigger from github</text>
</g>
<!-- deploy&#45;&gt;deploy! trigger from github -->
<g id="edge10" class="edge"><title>deploy&#45;&gt;deploy! trigger from github</title>
<path fill="none" stroke="black" d="M107.369,-86.9185C107.03,-81.2225 106.707,-74.8405 106.54,-69 106.33,-61.6485 106.478,-53.6914 106.77,-46.3331"/>
<polygon fill="black" stroke="black" points="110.277,-46.2819 107.275,-36.1211 103.285,-45.9358 110.277,-46.2819"/>
</g>
<!-- deploy! trigger from github&#45;&gt;deploy -->
<g id="edge9" class="edge"><title>deploy! trigger from github&#45;&gt;deploy</title>
<path fill="none" stroke="black" d="M108.54,-36.1754C108.54,-47.806 108.54,-63.4194 108.54,-76.7339"/>
<polygon fill="black" stroke="black" points="105.04,-76.7989 108.54,-86.799 112.04,-76.799 105.04,-76.7989"/>
<text text-anchor="middle" x="138.04" y="-57.8" font-family="Times,serif" font-size="14.00">production</text>
</g>
</g>
</svg>
