<?xml version="1.0" encoding="UTF-8" standalone="no"?>
<!DOCTYPE svg PUBLIC "-//W3C//DTD SVG 1.1//EN"
 "http://www.w3.org/Graphics/SVG/1.1/DTD/svg11.dtd">
<!-- Generated by graphviz version 2.38.0 (20140413.2041)
 -->
<!-- Title: %3 Pages: 1 -->
<svg width="454pt" height="658pt"
 viewBox="0.00 0.00 453.54 658.00" xmlns="http://www.w3.org/2000/svg" xmlns:xlink="http://www.w3.org/1999/xlink">
<g id="graph0" class="graph" transform="scale(1 1) rotate(0) translate(4 654)">
<title>%3</title>
<polygon fill="white" stroke="none" points="-4,4 -4,-654 449.54,-654 449.54,4 -4,4"/>
<!-- !taste trigger from github -->
<g id="node1" class="node"><title>!taste trigger from github</title>
<ellipse fill="none" stroke="red" cx="297.54" cy="-632" rx="100.983" ry="18"/>
<text text-anchor="middle" x="297.54" y="-628.3" font-family="Times,serif" font-size="14.00">!taste trigger from github</text>
</g>
<!-- jenkins_job -->
<g id="node2" class="node"><title>jenkins_job</title>
<ellipse fill="none" stroke="black" cx="238.54" cy="-559" rx="51.9908" ry="18"/>
<text text-anchor="middle" x="238.54" y="-555.3" font-family="Times,serif" font-size="14.00">jenkins_job</text>
</g>
<!-- !taste trigger from github&#45;&gt;jenkins_job -->
<g id="edge1" class="edge"><title>!taste trigger from github&#45;&gt;jenkins_job</title>
<path fill="none" stroke="black" d="M283.558,-614.174C276.21,-605.332 267.067,-594.329 258.944,-584.554"/>
<polygon fill="black" stroke="black" points="261.505,-582.159 252.422,-576.705 256.122,-586.633 261.505,-582.159"/>
</g>
<!-- payload_processor -->
<g id="node3" class="node"><title>payload_processor</title>
<ellipse fill="none" stroke="black" cx="217.54" cy="-486" rx="76.8869" ry="18"/>
<text text-anchor="middle" x="217.54" y="-482.3" font-family="Times,serif" font-size="14.00">payload_processor</text>
</g>
<!-- jenkins_job&#45;&gt;payload_processor -->
<g id="edge2" class="edge"><title>jenkins_job&#45;&gt;payload_processor</title>
<path fill="none" stroke="black" d="M233.457,-540.813C231.058,-532.702 228.14,-522.836 225.46,-513.777"/>
<polygon fill="black" stroke="black" points="228.77,-512.625 222.577,-504.029 222.057,-514.611 228.77,-512.625"/>
</g>
<!-- linter -->
<g id="node4" class="node"><title>linter</title>
<ellipse fill="none" stroke="black" cx="208.54" cy="-369" rx="29.4969" ry="18"/>
<text text-anchor="middle" x="208.54" y="-365.3" font-family="Times,serif" font-size="14.00">linter</text>
</g>
<!-- payload_processor&#45;&gt;linter -->
<g id="edge3" class="edge"><title>payload_processor&#45;&gt;linter</title>
<path fill="none" stroke="black" d="M216.173,-467.534C214.718,-448.936 212.394,-419.244 210.693,-397.501"/>
<polygon fill="black" stroke="black" points="214.16,-396.95 209.891,-387.254 207.182,-397.496 214.16,-396.95"/>
<text text-anchor="middle" x="262.54" y="-438.8" font-family="Times,serif" font-size="14.00">images_affected,</text>
<text text-anchor="middle" x="262.54" y="-423.8" font-family="Times,serif" font-size="14.00"> arch,</text>
<text text-anchor="middle" x="262.54" y="-408.8" font-family="Times,serif" font-size="14.00"> pr#</text>
</g>
<!-- image_builder -->
<g id="node5" class="node"><title>image_builder</title>
<ellipse fill="none" stroke="black" cx="178.54" cy="-252" rx="61.99" ry="18"/>
<text text-anchor="middle" x="178.54" y="-248.3" font-family="Times,serif" font-size="14.00">image_builder</text>
</g>
<!-- linter&#45;&gt;image_builder -->
<g id="edge4" class="edge"><title>linter&#45;&gt;image_builder</title>
<path fill="none" stroke="black" d="M204.114,-351.031C199.217,-332.261 191.262,-301.767 185.524,-279.77"/>
<polygon fill="black" stroke="black" points="188.896,-278.831 182.985,-270.038 182.123,-280.598 188.896,-278.831"/>
<text text-anchor="middle" x="246.54" y="-321.8" font-family="Times,serif" font-size="14.00">images_affected,</text>
<text text-anchor="middle" x="246.54" y="-306.8" font-family="Times,serif" font-size="14.00"> arch,</text>
<text text-anchor="middle" x="246.54" y="-291.8" font-family="Times,serif" font-size="14.00"> pr#</text>
</g>
<!-- deploy -->
<g id="node6" class="node"><title>deploy</title>
<g id="a_node6"><a xlink:title="stores results as artifacts for reuse">
<ellipse fill="none" stroke="black" cx="135.54" cy="-135" rx="34.394" ry="18"/>
<text text-anchor="middle" x="135.54" y="-131.3" font-family="Times,serif" font-size="14.00">deploy</text>
</a>
</g>
</g>
<!-- image_builder&#45;&gt;deploy -->
<g id="edge5" class="edge"><title>image_builder&#45;&gt;deploy</title>
<path fill="none" stroke="black" d="M172.196,-234.031C165.145,-215.176 153.672,-184.491 145.439,-162.472"/>
<polygon fill="black" stroke="black" points="148.692,-161.179 141.911,-153.038 142.135,-163.631 148.692,-161.179"/>
<text text-anchor="middle" x="212.54" y="-204.8" font-family="Times,serif" font-size="14.00">images_affected,</text>
<text text-anchor="middle" x="212.54" y="-189.8" font-family="Times,serif" font-size="14.00"> arch,</text>
<text text-anchor="middle" x="212.54" y="-174.8" font-family="Times,serif" font-size="14.00"> pr#</text>
</g>
<!-- openstack_taster -->
<g id="node7" class="node"><title>openstack_taster</title>
<ellipse fill="none" stroke="black" cx="318.54" cy="-18" rx="69.5877" ry="18"/>
<text text-anchor="middle" x="318.54" y="-14.3" font-family="Times,serif" font-size="14.00">openstack_taster</text>
</g>
<!-- deploy&#45;&gt;openstack_taster -->
<g id="edge6" class="edge"><title>deploy&#45;&gt;openstack_taster</title>
<path fill="none" stroke="black" d="M159.499,-122.014C169.855,-116.055 181.617,-108.162 190.54,-99 206.814,-82.2921 199.433,-68.7017 217.54,-54 228.67,-44.9637 242.279,-38.1939 255.858,-33.1456"/>
<polygon fill="black" stroke="black" points="257.383,-36.3228 265.705,-29.7661 255.11,-29.7019 257.383,-36.3228"/>
<text text-anchor="middle" x="264.54" y="-87.8" font-family="Times,serif" font-size="14.00">images_affected,</text>
<text text-anchor="middle" x="264.54" y="-72.8" font-family="Times,serif" font-size="14.00"> arch,</text>
<text text-anchor="middle" x="264.54" y="-57.8" font-family="Times,serif" font-size="14.00"> pr#</text>
</g>
<!-- !deploy trigger from github -->
<g id="node8" class="node"><title>!deploy trigger from github</title>
<ellipse fill="none" stroke="red" cx="108.54" cy="-18" rx="108.581" ry="18"/>
<text text-anchor="middle" x="108.54" y="-14.3" font-family="Times,serif" font-size="14.00">!deploy trigger from github</text>
</g>
<!-- deploy&#45;&gt;!deploy trigger from github -->
<g id="edge9" class="edge"><title>deploy&#45;&gt;!deploy trigger from github</title>
<path fill="none" stroke="black" d="M124.429,-117.94C120.999,-112.209 117.588,-105.546 115.54,-99 110.23,-82.0266 108.474,-62.1051 108.048,-46.3878"/>
<polygon fill="black" stroke="black" points="111.547,-46.2279 107.939,-36.2663 104.547,-46.3036 111.547,-46.2279"/>
</g>
<!-- openstack_taster&#45;&gt;!taste trigger from github -->
<g id="edge7" class="edge"><title>openstack_taster&#45;&gt;!taste trigger from github</title>
<path fill="none" stroke="black" d="M320.235,-36.1256C322.307,-58.5766 325.54,-99.1961 325.54,-134 325.54,-560 325.54,-560 325.54,-560 325.54,-575.674 319.562,-592.022 313.131,-605.074"/>
<polygon fill="black" stroke="black" points="310.023,-603.463 308.446,-613.94 316.213,-606.733 310.023,-603.463"/>
<text text-anchor="middle" x="385.54" y="-372.8" font-family="Times,serif" font-size="14.00">tasting result</text>
<text text-anchor="middle" x="385.54" y="-357.8" font-family="Times,serif" font-size="14.00"> also stored as artifact</text>
</g>
<!-- !deploy trigger from github&#45;&gt;deploy -->
<g id="edge8" class="edge"><title>!deploy trigger from github&#45;&gt;deploy</title>
<path fill="none" stroke="black" d="M112.541,-36.0383C116.934,-54.7522 124.05,-85.0595 129.204,-107.013"/>
<polygon fill="black" stroke="black" points="125.863,-108.096 131.556,-117.031 132.678,-106.496 125.863,-108.096"/>
<text text-anchor="middle" x="157.04" y="-72.8" font-family="Times,serif" font-size="14.00">production</text>
</g>
</g>
</svg>
